<?xml version="1.0" encoding="UTF-8"?>
<svg width="2029px" height="414px" viewBox="0 0 2029 414" version="1.1" xmlns="http://www.w3.org/2000/svg" xmlns:xlink="http://www.w3.org/1999/xlink">
    <!-- Generator: Sketch 52.5 (67469) - http://www.bohemiancoding.com/sketch -->
    <title>skafos_horizontal_on_white_beta@1x</title>
    <desc>Created with Sketch.</desc>
    <g id="skafos_horizontal_on_white_beta" stroke="none" stroke-width="1" fill="none" fill-rule="evenodd">
        <g id="Group-2">
            <g id="Group" fill-rule="nonzero">
                <path d="M108.947368,305.052632 L305.052632,305.052632 L305.052632,108.947368 L414,0 L414,414 L0,414 L108.947368,305.052632 Z" id="Combined-Shape" fill="#676EDF"></path>
                <polygon id="Rectangle-3-Copy-5" fill="#6EA3C2" points="277 0 277 277 0 277"></polygon>
            </g>
            <path d="M614,299.97941 L633.451419,277.614962 C640.270628,286.807413 649.01809,294.794636 659.694065,301.57687 C670.370041,308.359105 681.688641,311.750172 693.650206,311.750172 C706.953254,311.750172 717.992383,308.134902 726.767923,300.904255 C735.543463,293.673608 739.931167,283.948814 739.931167,271.729581 C739.931167,266.012326 738.673545,260.855662 736.158263,256.259437 C733.642981,251.663212 729.81422,247.711639 724.671865,244.404598 C719.52951,241.097558 715.700749,238.79948 713.185467,237.510295 C710.670185,236.22111 706.785529,234.567615 701.531384,232.54976 C682.974191,225.150958 670.397968,219.826143 663.802339,216.575154 C654.188372,212.203135 646.251378,206.598067 639.99112,199.75978 C629.70641,188.997887 624.564133,175.209418 624.564133,158.39396 C624.564133,140.009059 631.7745,124.763273 646.195452,112.656143 C660.169242,100.997425 678.390791,95.1121031 700.860645,95 C726.68421,95 749.32141,105.257276 768.772926,125.772135 L751.333723,148.472889 C735.347707,131.433225 717.964573,122.913521 699.183799,122.913521 C686.998654,122.913521 677.077412,125.800131 669.419775,131.573439 C661.762138,137.346746 657.933377,145.502121 657.933377,156.039808 C657.933377,161.308651 658.771791,165.960858 660.448646,169.996568 C662.125501,174.032278 664.640746,177.479395 667.994455,180.338023 C671.348165,183.196651 674.506194,185.438679 677.468638,187.064173 C680.431081,188.689667 684.092159,190.399213 688.451982,192.192862 L732.049989,210.52162 C743.452602,215.790463 752.395694,222.180242 758.879532,229.691146 C768.4935,241.686173 773.300412,255.026236 773.300412,269.711736 C773.300412,290.562905 765.028052,307.770465 748.483084,321.334935 C733.391391,333.778374 714.051955,340 690.464198,340 C680.85023,340 671.767403,338.654784 663.215443,335.96431 C654.663483,333.273837 647.061856,329.46239 640.410331,324.529856 C633.758807,319.597321 628.700371,315.477596 625.234871,312.170556 C621.769371,308.863516 618.024452,304.799841 614,299.97941 Z M809.596708,336.975309 L809.596708,99.0329218 L842.5523,99.0329218 L842.5523,238.632525 L909.646506,173.1268 L948.517205,173.1268 L884.127048,234.927831 L956.798354,336.975309 L917.927655,336.975309 L861.649644,257.66118 L842.5523,275.511069 L842.5523,336.975309 L809.596708,336.975309 Z M962.847737,289.252401 C962.847737,273.680763 968.643801,261.72215 980.236103,253.3762 C991.828404,245.030251 1007.57673,240.409241 1027.48156,239.513032 L1071.58864,237.664609 L1071.58864,231.111111 C1071.58864,219.236338 1067.88481,210.078336 1060.47705,203.636831 C1053.06929,197.195327 1043.14529,193.974623 1030.70477,193.974623 C1012.83566,193.974623 996.267404,198.679651 980.999494,208.089849 L970.820939,186.076818 C990.273387,175.098253 1010.91303,169.609053 1032.74049,169.609053 C1056.60366,169.609053 1074.75524,175.7704 1087.19576,188.093278 C1099.0708,200.304131 1105.00823,218.003999 1105.00823,241.193416 L1105.00823,336.135117 L1072.60649,336.135117 L1072.26721,315.466392 C1056.77311,331.710186 1039.3001,339.887974 1019.84765,340 C1003.90116,340 990.414713,335.406996 979.38789,326.22085 C968.361066,317.034705 962.847737,304.712011 962.847737,289.252401 Z M996.119342,289.265844 C996.119342,297.423909 999.101243,304.222195 1005.06514,309.660905 C1011.02903,315.099616 1019.35585,317.81893 1030.04585,317.81893 C1047.26237,317.81893 1061.15915,309.830944 1071.73663,293.854733 L1071.73663,258.333333 L1033.42162,260.712757 C1008.55331,262.072435 996.119342,271.590035 996.119342,289.265844 Z M1128.19753,199.542124 L1128.19753,173.029033 L1151.78613,173.029033 L1151.78613,156.584205 C1151.78613,136.671319 1155.51954,122.128419 1162.98647,112.955068 C1172.71611,101.096833 1185.89618,95.1118701 1202.52707,95 C1208.07071,95 1213.21829,95.3076383 1217.96997,95.922924 C1222.72166,96.5382098 1226.17223,97.1814535 1228.3218,97.8526743 L1231.03704,98.8595006 L1229.00061,123.191134 C1222.77817,121.177472 1216.49925,120.170656 1210.16367,120.170656 C1200.20776,120.170656 1193.50459,123.191104 1190.05397,129.232092 C1186.60334,135.273079 1184.87805,143.831017 1184.87805,154.906161 L1184.87805,173.029033 L1224.07925,173.029033 L1224.07925,199.542124 L1184.87805,199.542124 L1184.87805,335.967078 L1151.78613,335.967078 L1151.78613,199.542124 L1128.19753,199.542124 Z M1254.77842,316.306584 C1238.27859,300.398869 1230.02881,279.926394 1230.02881,254.888546 C1230.02881,229.850698 1238.30665,209.378223 1254.8626,193.470508 C1271.41854,177.562792 1292.09913,169.609053 1316.90499,169.609053 C1341.48636,169.609053 1362.05471,177.562792 1378.61065,193.470508 C1395.1666,209.378223 1403.44444,229.850698 1403.44444,254.888546 C1403.44444,279.926394 1395.1666,300.370863 1378.61065,316.222565 C1362.05471,332.074268 1341.48636,340 1316.90499,340 C1292.09913,340 1271.39048,332.102274 1254.77842,316.306584 Z M1277.85047,214.091711 C1268.15038,224.926568 1263.30041,238.581634 1263.30041,255.057319 C1263.30041,271.533004 1268.15038,285.271844 1277.85047,296.27425 C1287.55055,307.276657 1300.40019,312.777778 1316.39975,312.777778 C1332.39932,312.777778 1345.19321,307.276657 1354.7818,296.27425 C1364.37039,285.271844 1369.16461,271.533004 1369.16461,255.057319 C1369.16461,238.581634 1364.37039,224.926568 1354.7818,214.091711 C1345.19321,203.256854 1332.39932,197.839506 1316.39975,197.839506 C1300.40019,197.839506 1287.55055,203.256854 1277.85047,214.091711 Z M1421.59259,310.593278 L1437.3882,291.4369 C1443.32559,298.830627 1450.83123,304.571882 1459.90535,308.660837 C1468.97947,312.749792 1477.54934,314.794239 1485.61523,314.794239 C1494.35327,314.794239 1501.74688,312.945835 1507.7963,309.248971 C1513.84571,305.552108 1516.87037,299.61481 1516.87037,291.4369 C1516.87037,288.636246 1516.19822,285.975664 1514.85391,283.455075 C1513.5096,280.934487 1511.91325,278.862034 1510.06481,277.237654 C1508.21638,275.613275 1505.69583,274.016926 1502.50309,272.44856 C1499.31034,270.880193 1496.73378,269.731942 1494.77332,269.003772 C1492.81286,268.275602 1490.04026,267.3514 1486.45542,266.231139 C1482.87058,265.110877 1480.74212,264.43873 1480.06996,264.214678 C1468.19519,260.069709 1460.74556,257.213085 1457.72085,255.644719 C1440.46882,246.906678 1431.84294,233.799813 1431.84294,216.323731 C1431.84294,201.872356 1437.1921,190.473864 1447.8906,182.127915 C1458.5891,173.781966 1471.61195,169.609053 1486.95953,169.609053 C1510.82111,169.609053 1529.41717,176.722608 1542.74829,190.949931 L1528.96914,211.282579 C1517.76652,199.631858 1503.98751,193.750572 1487.63169,193.638546 C1479.5658,193.638546 1473.20841,195.374925 1468.55933,198.847737 C1463.91024,202.320548 1461.58573,207.36165 1461.58573,213.971193 C1461.58573,219.90858 1464.33033,224.669621 1469.81962,228.254458 C1475.3089,231.839295 1483.20662,235.20003 1493.51303,238.336763 C1504.4916,242.257678 1511.8292,244.890254 1515.52606,246.234568 C1523.816,249.707379 1530.14538,253.628236 1534.5144,257.997257 C1543.25244,266.287193 1547.6214,276.369397 1547.6214,288.24417 C1547.6214,303.591755 1541.96416,316.026473 1530.64952,325.548697 C1518.9988,335.182947 1503.87549,340 1485.27915,340 C1457.72071,340 1436.49207,330.197858 1421.59259,310.593278 Z" id="Skafos" fill="#393A4A"></path>
        </g>
        <rect id="Rectangle" stroke="#D3E3EC" stroke-width="5" fill="#F0F5F9" fill-rule="nonzero" x="1669" y="156" width="357" height="198" rx="10"></rect>
        <path d="M1750.22656,289 L1750.22656,214.486328 L1770.31836,214.486328 C1778.43949,214.486328 1784.32811,215.664051 1787.98438,218.019531 C1793.32815,221.464861 1796,226.509732 1796,233.154297 C1796,236.986347 1794.91896,240.414047 1792.75684,243.4375 C1790.59472,246.460953 1787.8965,248.464839 1784.66211,249.449219 L1784.66211,249.712891 C1789.75979,250.80274 1793.78514,252.894516 1796.73828,255.988281 C1799.69142,259.082047 1801.16797,263.037085 1801.16797,267.853516 C1801.16797,274.462924 1798.5137,279.89451 1793.20508,284.148438 C1789.09178,287.382829 1782.81645,289 1774.37891,289 L1750.22656,289 Z M1760.66797,280.457031 L1771.90039,280.457031 C1778.08792,280.457031 1782.44725,279.595712 1784.97852,277.873047 C1788.59963,275.412097 1790.41016,271.914085 1790.41016,267.378906 C1790.41016,262.984353 1788.59963,259.574231 1784.97852,257.148438 C1782.30663,255.35546 1777.9473,254.458984 1771.90039,254.458984 L1760.66797,254.458984 L1760.66797,280.457031 Z M1760.66797,246.443359 L1769.42188,246.443359 C1774.83596,246.443359 1778.54491,245.687508 1780.54883,244.175781 C1783.85353,241.749988 1785.50586,238.480489 1785.50586,234.367188 C1785.50586,229.832009 1783.85353,226.6504 1780.54883,224.822266 C1778.15819,223.486321 1774.85354,222.818359 1770.63477,222.818359 L1760.66797,222.818359 L1760.66797,246.443359 Z M1809.07812,263.318359 C1809.07812,255.408164 1811.57419,249.001001 1816.56641,244.09668 C1821.55862,239.192358 1827.72848,236.740234 1835.07617,236.740234 C1842.21293,236.740234 1848.04881,239.025368 1852.58398,243.595703 C1857.11916,248.166038 1859.38672,254.054651 1859.38672,261.261719 L1859.07031,265.796875 L1819.51953,265.796875 C1819.80078,270.824244 1821.43553,274.79686 1824.42383,277.714844 C1827.41212,280.632827 1831.29685,282.091797 1836.07812,282.091797 C1837.37891,282.091797 1838.67089,282.003907 1839.9541,281.828125 C1841.23731,281.652343 1842.40624,281.397463 1843.46094,281.063477 C1844.51563,280.729491 1845.49121,280.386721 1846.3877,280.035156 C1847.28418,279.683592 1848.12793,279.27051 1848.91895,278.795898 C1849.70996,278.321287 1850.33398,277.943361 1850.79102,277.662109 C1851.24805,277.380858 1851.71386,277.055666 1852.18848,276.686523 C1852.66309,276.317381 1852.93555,276.132812 1853.00586,276.132812 L1857.33008,282.091797 L1856.9082,282.513672 C1856.62695,282.794923 1856.31934,283.067381 1855.98535,283.331055 C1855.65137,283.594728 1855.20313,283.955076 1854.64062,284.412109 C1854.07812,284.869143 1853.43653,285.299803 1852.71582,285.704102 C1851.99511,286.1084 1851.17774,286.53906 1850.26367,286.996094 C1849.3496,287.453127 1848.33887,287.866209 1847.23145,288.235352 C1846.12402,288.604494 1844.95508,288.929686 1843.72461,289.210938 C1842.49413,289.492189 1841.10548,289.729491 1839.55859,289.922852 C1838.01171,290.116212 1836.41212,290.212891 1834.75977,290.212891 C1827.13082,290.212891 1820.94338,287.760767 1816.19727,282.856445 C1811.45115,277.952124 1809.07812,271.439494 1809.07812,263.318359 Z M1819.625,258.888672 L1849.57812,258.888672 C1849.50781,255.443342 1848.18947,252.129899 1845.62305,248.948242 C1843.05663,245.766586 1839.43557,244.175781 1834.75977,244.175781 C1830.08396,244.175781 1826.44533,245.713852 1823.84375,248.790039 C1821.24217,251.866226 1819.83594,255.232404 1819.625,258.888672 Z M1864.13281,246.126953 L1864.13281,237.794922 L1871.67383,237.794922 L1871.67383,222.449219 L1882.0625,222.449219 L1882.0625,237.794922 L1894.34961,237.794922 L1894.34961,246.126953 L1882.0625,246.126953 L1882.0625,269.330078 C1882.0625,274.005883 1882.48437,277.134758 1883.32812,278.716797 C1884.34766,280.439462 1886.12303,281.318359 1888.6543,281.353516 C1889.53321,281.353516 1890.4121,281.256837 1891.29102,281.063477 C1892.16993,280.870116 1892.83789,280.66797 1893.29492,280.457031 L1893.92773,280.140625 L1894.56055,288.472656 C1891.88866,289.632818 1888.75978,290.212891 1885.17383,290.212891 C1880.28708,290.212891 1876.64845,288.437518 1874.25781,284.886719 C1872.53515,282.285143 1871.67383,277.16996 1871.67383,269.541016 L1871.67383,246.126953 L1864.13281,246.126953 Z M1898.83203,274.287109 C1898.83203,269.400366 1900.63377,265.647474 1904.2373,263.02832 C1907.84084,260.409167 1912.7363,258.958986 1918.92383,258.677734 L1932.63477,258.097656 L1932.63477,256.041016 C1932.63477,252.314434 1931.48341,249.44044 1929.18066,247.418945 C1926.87792,245.397451 1923.79299,244.386719 1919.92578,244.386719 C1914.37107,244.386719 1909.22073,245.863266 1904.47461,248.816406 L1901.31055,241.908203 C1907.35745,238.462873 1913.7734,236.740234 1920.55859,236.740234 C1927.9766,236.740234 1933.61912,238.673809 1937.48633,242.541016 C1941.17775,246.373066 1943.02344,251.927698 1943.02344,259.205078 L1943.02344,289 L1932.95117,289 L1932.8457,282.513672 C1928.02927,287.611354 1922.59769,290.177734 1916.55078,290.212891 C1911.59373,290.212891 1907.40138,288.771499 1903.97363,285.888672 C1900.54588,283.005845 1898.83203,279.138696 1898.83203,274.287109 Z M1909.11523,273.970703 C1909.11523,276.501966 1910.04687,278.61132 1911.91016,280.298828 C1913.77345,281.986337 1916.37498,282.830078 1919.71484,282.830078 C1925.09378,282.830078 1929.43553,280.351587 1932.74023,275.394531 L1932.74023,264.373047 L1920.76953,265.111328 C1912.99996,265.533205 1909.11523,268.486301 1909.11523,273.970703 Z" id="Beta" fill="#58829B"></path>
    </g>
</svg>